<mxfile host="app.diagrams.net" modified="2024-06-17T20:51:09.934Z" agent="Mozilla/5.0 (Macintosh; Intel Mac OS X 10.15; rv:127.0) Gecko/20100101 Firefox/127.0" etag="zbMb7KsJQRZwd16iqbha" version="24.5.4" type="device">
  <diagram name="Page-1" id="aXbNcwfLSUBGxV7NbLSO">
    <mxGraphModel dx="2593" dy="1411" grid="1" gridSize="10" guides="1" tooltips="1" connect="1" arrows="1" fold="1" page="1" pageScale="1" pageWidth="850" pageHeight="1100" math="0" shadow="0">
      <root>
        <mxCell id="0" />
        <mxCell id="1" parent="0" />
        <mxCell id="lYSH25I8x4riZCSr0vRo-1" value="&lt;div&gt;Archivo DEX inicial&lt;br&gt;&lt;/div&gt;&lt;div&gt;classes.dex &lt;/div&gt;" style="whiteSpace=wrap;html=1;aspect=fixed;" vertex="1" parent="1">
          <mxGeometry x="210" y="100" width="80" height="80" as="geometry" />
        </mxCell>
        <mxCell id="lYSH25I8x4riZCSr0vRo-2" value="&lt;div&gt;Clases ofuscadas iniciales&lt;br&gt;&lt;/div&gt;&lt;div&gt;-&lt;/div&gt;&lt;div&gt;Sin clase de entrada&lt;br&gt;&lt;/div&gt;" style="whiteSpace=wrap;html=1;aspect=fixed;" vertex="1" parent="1">
          <mxGeometry x="205" y="220" width="90" height="90" as="geometry" />
        </mxCell>
        <mxCell id="lYSH25I8x4riZCSr0vRo-3" value="DexClassLoader" style="html=1;whiteSpace=wrap;aspect=fixed;shape=isoRectangle;" vertex="1" parent="1">
          <mxGeometry x="175" y="360" width="150" height="90" as="geometry" />
        </mxCell>
        <mxCell id="lYSH25I8x4riZCSr0vRo-4" value="Archivo ZIP&lt;br&gt;&lt;div&gt;kx.json&lt;/div&gt;" style="whiteSpace=wrap;html=1;shape=mxgraph.basic.document" vertex="1" parent="1">
          <mxGeometry x="390" y="170" width="100" height="100" as="geometry" />
        </mxCell>
        <mxCell id="lYSH25I8x4riZCSr0vRo-5" value="Nuevo archivo DEX " style="whiteSpace=wrap;html=1;aspect=fixed;" vertex="1" parent="1">
          <mxGeometry x="400" y="365" width="80" height="80" as="geometry" />
        </mxCell>
        <mxCell id="lYSH25I8x4riZCSr0vRo-6" value="" style="endArrow=classic;html=1;rounded=0;exitX=0.5;exitY=1;exitDx=0;exitDy=0;entryX=0.5;entryY=0;entryDx=0;entryDy=0;" edge="1" parent="1" source="lYSH25I8x4riZCSr0vRo-1" target="lYSH25I8x4riZCSr0vRo-2">
          <mxGeometry width="50" height="50" relative="1" as="geometry">
            <mxPoint x="400" y="610" as="sourcePoint" />
            <mxPoint x="130" y="470" as="targetPoint" />
          </mxGeometry>
        </mxCell>
        <mxCell id="lYSH25I8x4riZCSr0vRo-7" value="" style="endArrow=classic;html=1;rounded=0;entryX=0.493;entryY=0.011;entryDx=0;entryDy=0;entryPerimeter=0;" edge="1" parent="1" target="lYSH25I8x4riZCSr0vRo-3">
          <mxGeometry width="50" height="50" relative="1" as="geometry">
            <mxPoint x="249" y="310" as="sourcePoint" />
            <mxPoint x="249.5" y="350" as="targetPoint" />
          </mxGeometry>
        </mxCell>
        <mxCell id="lYSH25I8x4riZCSr0vRo-8" value="DescompresiÃ³n" style="endArrow=classic;html=1;rounded=0;entryX=0.5;entryY=0;entryDx=0;entryDy=0;exitX=0.5;exitY=1;exitDx=0;exitDy=0;exitPerimeter=0;" edge="1" parent="1" source="lYSH25I8x4riZCSr0vRo-4" target="lYSH25I8x4riZCSr0vRo-5">
          <mxGeometry width="50" height="50" relative="1" as="geometry">
            <mxPoint x="360" y="425" as="sourcePoint" />
            <mxPoint x="410" y="375" as="targetPoint" />
          </mxGeometry>
        </mxCell>
        <mxCell id="lYSH25I8x4riZCSr0vRo-9" value="" style="endArrow=classic;html=1;rounded=0;exitX=0;exitY=0.5;exitDx=0;exitDy=0;entryX=0.97;entryY=0.507;entryDx=0;entryDy=0;entryPerimeter=0;" edge="1" parent="1" source="lYSH25I8x4riZCSr0vRo-5" target="lYSH25I8x4riZCSr0vRo-3">
          <mxGeometry width="50" height="50" relative="1" as="geometry">
            <mxPoint x="400" y="610" as="sourcePoint" />
            <mxPoint x="260" y="590" as="targetPoint" />
          </mxGeometry>
        </mxCell>
        <mxCell id="lYSH25I8x4riZCSr0vRo-11" value="&lt;div&gt;Nuevas clases ofuscadas&lt;/div&gt;&lt;div&gt;-&lt;/div&gt;&lt;div&gt;Con clase de entrada&lt;br&gt;&lt;/div&gt;" style="whiteSpace=wrap;html=1;aspect=fixed;" vertex="1" parent="1">
          <mxGeometry x="205" y="505" width="90" height="90" as="geometry" />
        </mxCell>
        <mxCell id="lYSH25I8x4riZCSr0vRo-12" value="" style="endArrow=classic;html=1;rounded=0;exitX=0.5;exitY=1;exitDx=0;exitDy=0;" edge="1" parent="1" target="lYSH25I8x4riZCSr0vRo-11">
          <mxGeometry width="50" height="50" relative="1" as="geometry">
            <mxPoint x="250.21" y="445" as="sourcePoint" />
            <mxPoint x="250" y="490" as="targetPoint" />
          </mxGeometry>
        </mxCell>
      </root>
    </mxGraphModel>
  </diagram>
</mxfile>
